<mxfile host="app.diagrams.net" modified="2023-09-04T05:12:47.753Z" agent="Mozilla/5.0 (X11; Ubuntu; Linux x86_64; rv:109.0) Gecko/20100101 Firefox/117.0" etag="CV0gApYMUyDwoBbuRlf1" version="21.7.2" type="github">
  <diagram name="Page-1" id="gaFkRxgwZGjxf6n4wOuk">
    <mxGraphModel dx="1114" dy="615" grid="1" gridSize="10" guides="1" tooltips="1" connect="1" arrows="1" fold="1" page="1" pageScale="1" pageWidth="1390" pageHeight="980" math="0" shadow="0">
      <root>
        <mxCell id="0" />
        <mxCell id="1" parent="0" />
        <mxCell id="ChgVhjX8cmSjWIQ145LC-3" style="edgeStyle=orthogonalEdgeStyle;rounded=0;orthogonalLoop=1;jettySize=auto;html=1;entryX=0;entryY=0.5;entryDx=0;entryDy=0;" edge="1" parent="1" source="ChgVhjX8cmSjWIQ145LC-1" target="ChgVhjX8cmSjWIQ145LC-2">
          <mxGeometry relative="1" as="geometry" />
        </mxCell>
        <mxCell id="ChgVhjX8cmSjWIQ145LC-5" value="CARTA" style="edgeLabel;html=1;align=center;verticalAlign=middle;resizable=0;points=[];" vertex="1" connectable="0" parent="ChgVhjX8cmSjWIQ145LC-3">
          <mxGeometry x="0.0625" relative="1" as="geometry">
            <mxPoint as="offset" />
          </mxGeometry>
        </mxCell>
        <mxCell id="ChgVhjX8cmSjWIQ145LC-1" value="JUGADOR" style="rounded=0;whiteSpace=wrap;html=1;" vertex="1" parent="1">
          <mxGeometry x="240" y="270" width="120" height="60" as="geometry" />
        </mxCell>
        <mxCell id="ChgVhjX8cmSjWIQ145LC-7" style="edgeStyle=orthogonalEdgeStyle;rounded=0;orthogonalLoop=1;jettySize=auto;html=1;entryX=0;entryY=0.5;entryDx=0;entryDy=0;" edge="1" parent="1" source="ChgVhjX8cmSjWIQ145LC-2" target="ChgVhjX8cmSjWIQ145LC-6">
          <mxGeometry relative="1" as="geometry" />
        </mxCell>
        <mxCell id="ChgVhjX8cmSjWIQ145LC-8" value="EFECTO" style="edgeLabel;html=1;align=center;verticalAlign=middle;resizable=0;points=[];" vertex="1" connectable="0" parent="ChgVhjX8cmSjWIQ145LC-7">
          <mxGeometry relative="1" as="geometry">
            <mxPoint as="offset" />
          </mxGeometry>
        </mxCell>
        <mxCell id="ChgVhjX8cmSjWIQ145LC-12" style="edgeStyle=orthogonalEdgeStyle;rounded=0;orthogonalLoop=1;jettySize=auto;html=1;exitX=0.5;exitY=1;exitDx=0;exitDy=0;entryX=0.5;entryY=0;entryDx=0;entryDy=0;" edge="1" parent="1" source="ChgVhjX8cmSjWIQ145LC-2" target="ChgVhjX8cmSjWIQ145LC-11">
          <mxGeometry relative="1" as="geometry" />
        </mxCell>
        <mxCell id="ChgVhjX8cmSjWIQ145LC-13" value="CARTA" style="edgeLabel;html=1;align=center;verticalAlign=middle;resizable=0;points=[];" vertex="1" connectable="0" parent="ChgVhjX8cmSjWIQ145LC-12">
          <mxGeometry x="-0.1429" y="-1" relative="1" as="geometry">
            <mxPoint as="offset" />
          </mxGeometry>
        </mxCell>
        <mxCell id="ChgVhjX8cmSjWIQ145LC-16" style="edgeStyle=orthogonalEdgeStyle;rounded=0;orthogonalLoop=1;jettySize=auto;html=1;exitX=0;exitY=0;exitDx=0;exitDy=0;entryX=0.5;entryY=0;entryDx=0;entryDy=0;" edge="1" parent="1" source="ChgVhjX8cmSjWIQ145LC-2" target="ChgVhjX8cmSjWIQ145LC-1">
          <mxGeometry relative="1" as="geometry">
            <Array as="points">
              <mxPoint x="538" y="250" />
              <mxPoint x="300" y="250" />
            </Array>
          </mxGeometry>
        </mxCell>
        <mxCell id="ChgVhjX8cmSjWIQ145LC-17" value="OPCIONAL: EFECTO OBSTACULO" style="edgeLabel;html=1;align=center;verticalAlign=middle;resizable=0;points=[];" vertex="1" connectable="0" parent="ChgVhjX8cmSjWIQ145LC-16">
          <mxGeometry x="-0.117" y="-1" relative="1" as="geometry">
            <mxPoint as="offset" />
          </mxGeometry>
        </mxCell>
        <mxCell id="ChgVhjX8cmSjWIQ145LC-2" value="&lt;div&gt;JUGAR&lt;/div&gt;&lt;div&gt;CARTA&lt;br&gt;&lt;/div&gt;" style="ellipse;whiteSpace=wrap;html=1;" vertex="1" parent="1">
          <mxGeometry x="520" y="260" width="120" height="80" as="geometry" />
        </mxCell>
        <mxCell id="ChgVhjX8cmSjWIQ145LC-6" value="&lt;div&gt;APLICAR&lt;/div&gt;&lt;div&gt;EFECTO&lt;br&gt;&lt;/div&gt;" style="ellipse;whiteSpace=wrap;html=1;" vertex="1" parent="1">
          <mxGeometry x="780" y="260" width="120" height="80" as="geometry" />
        </mxCell>
        <mxCell id="ChgVhjX8cmSjWIQ145LC-10" style="edgeStyle=orthogonalEdgeStyle;rounded=0;orthogonalLoop=1;jettySize=auto;html=1;entryX=0.5;entryY=0;entryDx=0;entryDy=0;" edge="1" parent="1" source="ChgVhjX8cmSjWIQ145LC-9" target="ChgVhjX8cmSjWIQ145LC-2">
          <mxGeometry relative="1" as="geometry" />
        </mxCell>
        <mxCell id="ChgVhjX8cmSjWIQ145LC-9" value="&lt;u&gt;MANO DEL JUGADOR&lt;br&gt;&lt;/u&gt;" style="text;html=1;align=center;verticalAlign=middle;resizable=0;points=[];autosize=1;strokeColor=none;fillColor=none;" vertex="1" parent="1">
          <mxGeometry x="505" y="128" width="150" height="30" as="geometry" />
        </mxCell>
        <mxCell id="ChgVhjX8cmSjWIQ145LC-11" value="&lt;div&gt;DESCARTAR&lt;/div&gt;&lt;div&gt;CARTA&lt;br&gt;&lt;/div&gt;" style="ellipse;whiteSpace=wrap;html=1;" vertex="1" parent="1">
          <mxGeometry x="520" y="410" width="120" height="80" as="geometry" />
        </mxCell>
        <mxCell id="ChgVhjX8cmSjWIQ145LC-15" style="edgeStyle=orthogonalEdgeStyle;rounded=0;orthogonalLoop=1;jettySize=auto;html=1;entryX=0.5;entryY=1;entryDx=0;entryDy=0;" edge="1" parent="1" source="ChgVhjX8cmSjWIQ145LC-14" target="ChgVhjX8cmSjWIQ145LC-11">
          <mxGeometry relative="1" as="geometry" />
        </mxCell>
        <mxCell id="ChgVhjX8cmSjWIQ145LC-14" value="PILA DESCARTE" style="text;html=1;align=center;verticalAlign=middle;resizable=0;points=[];autosize=1;strokeColor=none;fillColor=none;" vertex="1" parent="1">
          <mxGeometry x="520" y="568" width="120" height="30" as="geometry" />
        </mxCell>
      </root>
    </mxGraphModel>
  </diagram>
</mxfile>
